<svg width="24" height="24" viewBox="0 0 24 24" fill="none" xmlns="http://www.w3.org/2000/svg">
<path fill-rule="evenodd" clip-rule="evenodd" d="M11.4151 2.39523C11.7962 2.27809 12.2038 2.27809 12.5849 2.39523L15.5706 3.3129C17.1283 3.79164 18.6075 4.4955 19.9616 5.40216C21.0147 6.10735 20.5155 7.75009 19.2481 7.75009H4.75191C3.48446 7.75009 2.98526 6.10735 4.03841 5.40216C5.39244 4.4955 6.87174 3.79164 8.42938 3.3129L11.4151 2.39523ZM12.1442 3.82903C12.0502 3.80015 11.9498 3.80015 11.8558 3.82903L8.87006 4.7467C7.68925 5.10962 6.55791 5.61466 5.50069 6.25009H18.4993C17.4421 5.61466 16.3107 5.10962 15.1299 4.7467L12.1442 3.82903Z" fill="gray"/>
<path d="M4.25 21.0001C4.25 20.5859 4.58579 20.2501 5 20.2501H19C19.4142 20.2501 19.75 20.5859 19.75 21.0001C19.75 21.4143 19.4142 21.7501 19 21.7501H5C4.58579 21.7501 4.25 21.4143 4.25 21.0001Z" fill="gray"/>
<path d="M6.25 17.0001C6.25 17.4143 6.58579 17.7501 7 17.7501C7.41421 17.7501 7.75 17.4143 7.75 17.0001L7.75 11.0001C7.75 10.5859 7.41421 10.2501 7 10.2501C6.58579 10.2501 6.25 10.5859 6.25 11.0001L6.25 17.0001Z" fill="gray"/>
<path d="M12 17.7501C11.5858 17.7501 11.25 17.4143 11.25 17.0001L11.25 11.0001C11.25 10.5859 11.5858 10.2501 12 10.2501C12.4142 10.2501 12.75 10.5859 12.75 11.0001V17.0001C12.75 17.4143 12.4142 17.7501 12 17.7501Z" fill="gray"/>
<path d="M16.25 17.0001C16.25 17.4143 16.5858 17.7501 17 17.7501C17.4142 17.7501 17.75 17.4143 17.75 17.0001V11.0001C17.75 10.5859 17.4142 10.2501 17 10.2501C16.5858 10.2501 16.25 10.5859 16.25 11.0001V17.0001Z" fill="gray"/>
</svg>
